HIERARCHY
ROOT hips
{
	OFFSET -0.003675 0.299928 -0.021708
	CHANNELS 6 Xposition Yposition Zposition Xrotation Yrotation Zrotation
	JOINT LowerBack
	{
		OFFSET 0.000919 0.177588 0.009275
		CHANNELS 3 Xrotation Yrotation Zrotation
		JOINT spine
		{
			OFFSET 0.000919 0.177588 0.009275
			CHANNELS 3 Xrotation Yrotation Zrotation
			JOINT chest
			{
				OFFSET 0.000456 0.100015 0.004638
				CHANNELS 3 Xrotation Yrotation Zrotation
				JOINT neck
				{
					OFFSET 0.000456 0.100015 0.004638
					CHANNELS 3 Xrotation Yrotation Zrotation
					JOINT head
					{
						OFFSET 0.000924 0.155147 0.009274
						CHANNELS 6 Xposition Yposition Zposition Xrotation Yrotation Zrotation
						End Site
						{
							OFFSET 0.000000 0.153400 0.000000
						}
					}
				}
				JOINT shoulder.L
				{
					OFFSET 0.019937 0.078966 0.057518
					CHANNELS 6 Xposition Yposition Zposition Yrotation Xrotation Zrotation
					JOINT upper_arm.L
					{
						OFFSET 0.177024 -0.020465 -0.095062
						CHANNELS 6 Xposition Yposition Zposition Xrotation Yrotation Zrotation
						JOINT forearm.L
						{
							OFFSET 0.247100 -0.135500 -0.061800
							CHANNELS 3 Xrotation Yrotation Zrotation
							JOINT hand.L
							{
								OFFSET 0.217000 -0.143000 0.039300
								CHANNELS 3 Xrotation Yrotation Zrotation
								JOINT palm.01.L
								{
									OFFSET 0.021770 -0.038291 0.012954
									CHANNELS 6 Xposition Yposition Zposition Yrotation Xrotation Zrotation
									JOINT f_index.01.L
									{
										OFFSET 0.053215 -0.044137 0.008236
										CHANNELS 3 Xrotation Yrotation Zrotation
										JOINT f_index.02.L
										{
											OFFSET 0.036108 -0.024723 -0.010656
											CHANNELS 3 Xrotation Yrotation Zrotation
											JOINT f_index.03.L
											{
												OFFSET 0.021342 -0.014948 -0.010846
												CHANNELS 3 Xrotation Yrotation Zrotation
												End Site
												{
													OFFSET 0.015600 -0.009860 -0.013421
												}
											}
										}
									}
									JOINT thumb.01.L
									{
										OFFSET -0.009090 -0.002348 -0.024223
										CHANNELS 6 Xposition Yposition Zposition Xrotation Yrotation Zrotation
										JOINT thumb.02.L
										{
											OFFSET 0.019713 -0.035076 -0.011120
											CHANNELS 3 Xrotation Yrotation Zrotation
											JOINT thumb.03.L
											{
												OFFSET 0.024877 -0.021748 -0.005176
												CHANNELS 3 Xrotation Yrotation Zrotation
												End Site
												{
													OFFSET 0.016125 -0.013029 -0.001569
												}
											}
										}
									}
								}
								JOINT palm.02.L
								{
									OFFSET 0.032823 -0.025104 0.012281
									CHANNELS 6 Xposition Yposition Zposition Yrotation Xrotation Zrotation
									JOINT f_middle.01.L
									{
										OFFSET 0.055723 -0.038469 0.008037
										CHANNELS 3 Xrotation Yrotation Zrotation
										JOINT f_middle.02.L
										{
											OFFSET 0.038167 -0.027473 -0.015582
											CHANNELS 3 Xrotation Yrotation Zrotation
											JOINT f_middle.03.L
											{
												OFFSET 0.021707 -0.016587 -0.017037
												CHANNELS 3 Xrotation Yrotation Zrotation
												End Site
												{
													OFFSET 0.014112 -0.010584 -0.014294
												}
											}
										}
									}
								}
								JOINT palm.03.L
								{
									OFFSET 0.039230 -0.011402 0.008390
									CHANNELS 6 Xposition Yposition Zposition Yrotation Xrotation Zrotation
									JOINT f_ring.01.L
									{
										OFFSET 0.061796 -0.031470 0.007910
										CHANNELS 3 Xrotation Yrotation Zrotation
										JOINT f_ring.02.L
										{
											OFFSET 0.033092 -0.023401 -0.019127
											CHANNELS 3 Xrotation Yrotation Zrotation
											JOINT f_ring.03.L
											{
												OFFSET 0.021392 -0.015362 -0.017824
												CHANNELS 3 Xrotation Yrotation Zrotation
												End Site
												{
													OFFSET 0.008670 -0.007297 -0.014686
												}
											}
										}
									}
								}
								JOINT palm.04.L
								{
									OFFSET 0.043417 0.002450 0.002889
									CHANNELS 6 Xposition Yposition Zposition Yrotation Xrotation Zrotation
									JOINT f_pinky.01.L
									{
										OFFSET 0.069986 -0.026156 0.003627
										CHANNELS 3 Xrotation Yrotation Zrotation
										JOINT f_pinky.02.L
										{
											OFFSET 0.018520 -0.012813 -0.016429
											CHANNELS 3 Xrotation Yrotation Zrotation
											JOINT f_pinky.03.L
											{
												OFFSET 0.013822 -0.009796 -0.014947
												CHANNELS 3 Xrotation Yrotation Zrotation
												End Site
												{
													OFFSET 0.007238 -0.006103 -0.011657
												}
											}
										}
									}
								}
							}
						}
					}
				}
				JOINT shoulder.R
				{
					OFFSET -0.016662 0.078957 0.057696
					CHANNELS 6 Xposition Yposition Zposition Yrotation Xrotation Zrotation
					JOINT upper_arm.R
					{
						OFFSET -0.176972 -0.020537 -0.095144
						CHANNELS 6 Xposition Yposition Zposition Xrotation Yrotation Zrotation
						JOINT forearm.R
						{
							OFFSET -0.247100 -0.135500 -0.061800
							CHANNELS 3 Xrotation Yrotation Zrotation
							JOINT hand.R
							{
								OFFSET -0.217000 -0.143000 0.039300
								CHANNELS 3 Xrotation Yrotation Zrotation
								JOINT palm.01.R
								{
									OFFSET -0.021773 -0.038278 0.012988
									CHANNELS 6 Xposition Yposition Zposition Yrotation Xrotation Zrotation
									JOINT f_index.01.R
									{
										OFFSET -0.053212 -0.044139 0.008249
										CHANNELS 3 Xrotation Yrotation Zrotation
										JOINT f_index.02.R
										{
											OFFSET -0.036049 -0.024835 -0.010634
											CHANNELS 3 Xrotation Yrotation Zrotation
											JOINT f_index.03.R
											{
												OFFSET -0.021371 -0.014881 -0.010866
												CHANNELS 3 Xrotation Yrotation Zrotation
												End Site
												{
													OFFSET -0.015584 -0.009883 -0.013422
												}
											}
										}
									}
									JOINT thumb.01.R
									{
										OFFSET 0.009113 -0.002381 -0.024211
										CHANNELS 6 Xposition Yposition Zposition Xrotation Yrotation Zrotation
										JOINT thumb.02.R
										{
											OFFSET -0.019694 -0.035097 -0.011088
											CHANNELS 3 Xrotation Yrotation Zrotation
											JOINT thumb.03.R
											{
												OFFSET -0.024867 -0.021762 -0.005168
												CHANNELS 3 Xrotation Yrotation Zrotation
												End Site
												{
													OFFSET -0.016120 -0.013036 -0.001565
												}
											}
										}
									}
								}
								JOINT palm.02.R
								{
									OFFSET -0.032828 -0.025095 0.012286
									CHANNELS 6 Xposition Yposition Zposition Yrotation Xrotation Zrotation
									JOINT f_middle.01.R
									{
										OFFSET -0.055721 -0.038472 0.008040
										CHANNELS 3 Xrotation Yrotation Zrotation
										JOINT f_middle.02.R
										{
											OFFSET -0.038101 -0.027593 -0.015557
											CHANNELS 3 Xrotation Yrotation Zrotation
											JOINT f_middle.03.R
											{
												OFFSET -0.021730 -0.016530 -0.017054
												CHANNELS 3 Xrotation Yrotation Zrotation
												End Site
												{
													OFFSET -0.014096 -0.010608 -0.014293
												}
											}
										}
									}
								}
								JOINT palm.03.R
								{
									OFFSET -0.039192 -0.011488 0.008390
									CHANNELS 6 Xposition Yposition Zposition Yrotation Xrotation Zrotation
									JOINT f_ring.01.R
									{
										OFFSET -0.061839 -0.031387 0.007876
										CHANNELS 3 Xrotation Yrotation Zrotation
										JOINT f_ring.02.R
										{
											OFFSET -0.033068 -0.023437 -0.019125
											CHANNELS 3 Xrotation Yrotation Zrotation
											JOINT f_ring.03.R
											{
												OFFSET -0.021371 -0.015393 -0.017822
												CHANNELS 3 Xrotation Yrotation Zrotation
												End Site
												{
													OFFSET -0.008654 -0.007321 -0.014684
												}
											}
										}
									}
								}
								JOINT palm.04.R
								{
									OFFSET -0.043421 0.002443 0.002845
									CHANNELS 6 Xposition Yposition Zposition Yrotation Xrotation Zrotation
									JOINT f_pinky.01.R
									{
										OFFSET -0.069983 -0.026169 0.003599
										CHANNELS 3 Xrotation Yrotation Zrotation
										JOINT f_pinky.02.R
										{
											OFFSET -0.018501 -0.012842 -0.016428
											CHANNELS 3 Xrotation Yrotation Zrotation
											JOINT f_pinky.03.R
											{
												OFFSET -0.013806 -0.009821 -0.014946
												CHANNELS 3 Xrotation Yrotation Zrotation
												End Site
												{
													OFFSET -0.007226 -0.006121 -0.011655
												}
											}
										}
									}
								}
							}
						}
					}
				}
			}
		}
	}
	JOINT pelvis.L
	{
		OFFSET 0.000000 0.000000 0.000000
		CHANNELS 6 Xposition Yposition Zposition Xrotation Yrotation Zrotation
		JOINT thigh.L
		{
			OFFSET 0.101675 0.001054 -0.000000
			CHANNELS 3 Xrotation Yrotation Zrotation
			JOINT shin.L
			{
				OFFSET 0.000000 -0.534800 0.041000
				CHANNELS 3 Xrotation Yrotation Zrotation
				JOINT foot.L
				{
					OFFSET 0.000000 -0.452000 -0.044800
					CHANNELS 3 Xrotation Yrotation Zrotation
					JOINT toe.L
					{
						OFFSET -0.000000 -0.068500 0.109600
						CHANNELS 3 Xrotation Yrotation Zrotation
						End Site
						{
							OFFSET -0.000000 0.000000 0.067200
						}
					}
				}
				JOINT heel.L
				{
					OFFSET 0.000000 -0.452000 -0.044800
					CHANNELS 3 Xrotation Yrotation Zrotation
					JOINT heel.02.L
					{
						OFFSET -0.038000 -0.085200 0.016200
						CHANNELS 6 Xposition Yposition Zposition Xrotation Yrotation Zrotation
						End Site
						{
							OFFSET 0.080000 -0.000000 0.000000
						}
					}
				}
			}
		}
	}
	JOINT pelvis.R
	{
		OFFSET 0.000000 0.000000 0.000000
		CHANNELS 6 Xposition Yposition Zposition Xrotation Yrotation Zrotation
		JOINT thigh.R
		{
			OFFSET -0.094325 0.001054 0.000000
			CHANNELS 3 Xrotation Yrotation Zrotation
			JOINT shin.R
			{
				OFFSET 0.000000 -0.534800 0.041000
				CHANNELS 3 Xrotation Yrotation Zrotation
				JOINT foot.R
				{
					OFFSET 0.000000 -0.452000 -0.044800
					CHANNELS 3 Xrotation Yrotation Zrotation
					JOINT toe.R
					{
						OFFSET -0.000000 -0.068500 0.109600
						CHANNELS 3 Xrotation Yrotation Zrotation
						End Site
						{
							OFFSET -0.000000 0.000000 0.067200
						}
					}
				}
				JOINT heel.R
				{
					OFFSET 0.000000 -0.452000 -0.044800
					CHANNELS 3 Xrotation Yrotation Zrotation
					JOINT heel.02.R
					{
						OFFSET 0.038000 -0.085200 0.016200
						CHANNELS 6 Xposition Yposition Zposition Xrotation Yrotation Zrotation
						End Site
						{
							OFFSET -0.080000 0.000000 -0.000000
						}
					}
				}
			}
		}
	}
}
MOTION
Frames: 4
Frame Time: 0.041667
-0.003675 0.299928 -0.021708 0.000000 -0.000000 0.000000 -0.000001 0.000000 0.000000 -0.000000 0.000000 0.000000 -0.000000 0.000000 0.000000 -0.000000 -0.000000 -0.000000 0.000924 0.155147 0.009274 -0.000001 -0.000000 -0.000000 0.019937 0.078966 0.057518 0.000001 0.000001 -0.000005 0.177024 -0.020465 -0.095062 -0.000006 -0.000003 0.000015 -0.000009 -0.000004 -0.000009 -0.000000 0.000000 0.000001 0.021770 -0.038291 0.012954 0.000001 -0.000001 0.000001 -0.000001 -0.000001 -0.000002 -0.000001 -0.000000 0.000007 -0.000000 0.000000 0.000003 -0.009090 -0.002348 -0.024224 -0.000002 0.000001 0.000001 0.000001 -0.000001 0.000001 -0.000000 0.000000 -0.000001 0.032823 -0.025104 0.012281 0.000000 -0.000000 0.000000 0.000001 0.000004 -0.000003 -0.000001 -0.000000 -0.000000 -0.000001 -0.000003 0.000003 0.039230 -0.011402 0.008390 -0.000000 -0.000000 0.000008 0.000001 0.000001 -0.000000 -0.000001 0.000003 -0.000001 0.000002 0.000002 -0.000000 0.043417 0.002450 0.002889 -0.000000 0.000001 0.000002 -0.000001 -0.000003 0.000001 -0.000000 0.000003 -0.000000 -0.000000 -0.000003 0.000001 -0.016662 0.078956 0.057696 -0.000001 0.000002 0.000011 -0.176972 -0.020537 -0.095144 0.000001 -0.000003 -0.000005 -0.000006 0.000005 -0.000014 -0.000001 -0.000000 0.000000 -0.021773 -0.038278 0.012988 0.000000 -0.000001 -0.000003 -0.000001 0.000001 -0.000003 -0.000001 -0.000000 0.000001 0.000001 0.000002 0.000007 0.009113 -0.002381 -0.024211 0.000002 -0.000001 0.000004 -0.000000 0.000001 0.000002 0.000000 0.000000 -0.000003 -0.032828 -0.025095 0.012286 0.000001 -0.000001 -0.000001 -0.000001 0.000003 -0.000003 -0.000002 0.000004 -0.000001 0.000001 -0.000002 -0.000000 -0.039192 -0.011488 0.008390 0.000000 0.000000 0.000001 -0.000000 0.000003 -0.000003 -0.000001 0.000001 0.000002 -0.000001 0.000000 -0.000003 -0.043421 0.002443 0.002844 -0.000000 -0.000001 0.000000 -0.000007 0.000003 -0.000002 -0.000003 -0.000000 -0.000000 0.000001 -0.000000 0.000001 -0.000000 0.000000 -0.000000 -0.000001 -0.000000 0.000001 0.000009 -0.000202 0.000014 -0.000026 0.000202 -0.000015 0.000000 -0.000000 -0.000000 0.000002 -0.000000 -0.000000 0.000000 0.000000 -0.000000 -0.038000 -0.085200 0.016200 0.000000 0.000000 0.000000 0.000000 -0.000000 -0.000000 -0.000001 0.000000 -0.000004 0.000008 -0.000013 0.000005 -0.000012 0.000013 -0.000001 -0.000003 -0.000000 -0.000000 0.000000 -0.000000 -0.000000 0.000002 -0.000000 -0.000000 0.038000 -0.085200 0.016200 0.000002 -0.000000 0.000000 
-0.002829 0.255626 -0.020883 1.523896 1.211790 -0.525491 -0.000000 0.000000 -0.000000 -0.000001 -0.000000 -0.000000 0.000000 0.000000 -0.000000 0.000000 0.000000 -0.000000 0.000924 0.155148 0.009274 8.494477 -0.010700 2.592454 0.019937 0.078966 0.057518 3.389631 3.049222 27.174941 0.177025 -0.020465 -0.095062 -1.304195 11.374684 -71.970379 -4.932588 -7.436619 -13.842522 -0.000002 -0.000000 0.000005 0.021770 -0.038291 0.012954 0.000001 -0.000002 -0.000004 -0.000003 -0.000001 0.000003 0.000002 -0.000001 0.000005 -0.000002 -0.000001 0.000006 -0.009090 -0.002348 -0.024223 -0.000003 -0.000002 0.000001 0.000001 0.000001 -0.000000 -0.000000 -0.000000 0.000003 0.032823 -0.025104 0.012281 -0.000001 -0.000002 0.000004 -0.000000 0.000003 -0.000003 -0.000005 0.000002 -0.000000 0.000000 0.000001 0.000003 0.039230 -0.011402 0.008390 0.000001 0.000001 0.000004 0.000002 0.000000 0.000003 -0.000000 -0.000000 -0.000001 0.000003 -0.000003 0.000005 0.043417 0.002450 0.002889 -0.000000 -0.000000 -0.000002 -0.000002 -0.000006 -0.000002 -0.000005 0.000001 -0.000001 0.000003 -0.000004 -0.000002 -0.016662 0.078957 0.057696 -3.176150 2.794639 -26.092641 -0.176972 -0.020537 -0.095144 -4.484954 -11.726188 67.971857 -5.437444 7.911468 13.041140 0.000000 -0.000001 -0.000003 -0.021773 -0.038278 0.012988 -0.000001 0.000002 -0.000007 0.000002 0.000001 0.000002 -0.000001 -0.000003 -0.000004 -0.000003 -0.000002 0.000003 0.009113 -0.002381 -0.024211 0.000003 -0.000003 0.000002 -0.000000 -0.000002 0.000000 0.000001 0.000000 -0.000006 -0.032828 -0.025095 0.012286 0.000001 0.000001 -0.000003 -0.000000 0.000000 -0.000001 -0.000000 -0.000001 -0.000002 -0.000003 0.000000 -0.000000 -0.039192 -0.011488 0.008390 0.000001 0.000005 -0.000000 -0.000002 0.000004 -0.000002 0.000001 -0.000001 0.000002 0.000001 -0.000003 0.000001 -0.043421 0.002443 0.002845 -0.000001 0.000001 -0.000003 -0.000002 0.000003 -0.000002 -0.000003 0.000001 -0.000002 -0.000002 -0.000002 -0.000002 0.000000 0.000000 -0.000000 -1.602281 0.020655 -1.268204 -7.403137 -0.370640 -4.065915 44.882058 -0.017333 0.176986 0.000000 0.000000 0.000000 -0.000004 0.000000 -0.000000 -0.000002 -0.000000 0.000001 -0.038000 -0.085200 0.016200 0.000001 -0.000000 0.000000 0.000000 0.000000 0.000000 -1.567247 0.020244 -0.034037 1.825907 0.528933 6.691516 34.635456 0.176793 -1.783176 -0.000005 0.000000 0.000000 -0.000000 0.000000 0.000000 0.000002 -0.000000 -0.000000 0.038000 -0.085200 0.016200 -0.000000 0.000001 0.000000 
-0.002870 0.255904 -0.019612 2.325287 1.351421 -0.285149 -0.000001 -0.000000 -0.000000 -0.000000 -0.000000 -0.000000 0.000000 -0.000000 -0.000000 -0.000000 0.000000 -0.000000 0.000924 0.155148 0.009274 8.741792 -0.010926 2.349769 0.019937 0.078966 0.057518 3.572836 3.221335 27.283397 0.177024 -0.020465 -0.095062 -1.712109 11.392208 -71.730633 -5.889617 -8.299348 -13.665258 0.000001 -0.000002 -0.000002 0.021770 -0.038291 0.012954 0.000001 0.000003 -0.000004 0.000001 -0.000000 -0.000000 -0.000000 -0.000001 0.000005 0.000003 0.000001 0.000002 -0.009090 -0.002348 -0.024223 -0.000000 -0.000001 -0.000001 -0.000000 -0.000001 0.000005 0.000001 -0.000001 -0.000004 0.032823 -0.025104 0.012281 0.000001 0.000003 0.000005 0.000000 -0.000001 -0.000004 -0.000003 -0.000003 0.000003 -0.000002 0.000000 -0.000003 0.039230 -0.011402 0.008390 0.000001 0.000001 0.000004 0.000005 0.000004 0.000001 -0.000001 0.000006 -0.000002 -0.000002 -0.000002 -0.000001 0.043417 0.002450 0.002889 0.000000 0.000003 -0.000002 0.000003 -0.000000 -0.000005 -0.000003 -0.000000 -0.000001 0.000001 -0.000000 0.000002 -0.016662 0.078957 0.057696 -3.188694 2.896687 -26.067685 -0.176972 -0.020537 -0.095144 -4.128701 -11.666836 68.250262 -5.047645 7.610129 12.229656 0.000004 0.000000 0.000004 -0.021773 -0.038278 0.012988 -0.000001 -0.000001 -0.000003 -0.000004 0.000001 0.000004 -0.000000 -0.000002 -0.000006 -0.000000 0.000002 -0.000003 0.009113 -0.002381 -0.024212 0.000001 -0.000003 0.000008 -0.000000 -0.000001 -0.000001 0.000000 0.000001 0.000001 -0.032828 -0.025095 0.012286 -0.000001 0.000000 -0.000001 0.000003 0.000006 -0.000001 0.000000 0.000001 -0.000003 0.000001 -0.000001 -0.000004 -0.039192 -0.011488 0.008390 -0.000001 -0.000001 0.000001 -0.000000 0.000004 -0.000002 0.000002 -0.000001 0.000002 0.000001 0.000000 -0.000004 -0.043421 0.002443 0.002845 0.000001 -0.000001 0.000002 -0.000005 0.000003 0.000001 -0.000005 -0.000001 0.000002 -0.000000 -0.000003 -0.000002 0.000000 -0.000000 -0.000000 -1.582076 0.028840 -1.373558 -3.878136 -0.353445 -4.064345 39.168065 -0.115123 1.163686 -0.000005 -0.000001 -0.000000 -0.000002 0.000000 -0.000000 0.000000 -0.000000 -0.000000 -0.038000 -0.085200 0.016200 -0.000000 0.000000 -0.000000 0.000000 -0.000000 -0.000000 -1.547228 0.028367 -0.139380 3.051221 0.489792 6.272516 33.465454 0.207208 -2.090228 -0.000003 -0.000000 0.000000 -0.000004 0.000000 0.000000 0.000000 0.000000 0.000000 0.038000 -0.085200 0.016200 0.000001 -0.000000 0.000000 
-0.002958 0.255897 -0.020174 2.361816 0.704663 -0.192860 -0.000000 -0.000000 -0.000000 0.000000 0.000000 0.000000 0.000001 0.000000 -0.000000 0.000001 0.000000 -0.000000 0.000924 0.155147 0.009274 8.596984 -0.010788 2.505597 0.019937 0.078966 0.057518 3.913017 3.216064 27.267541 0.177025 -0.020465 -0.095062 -1.892812 11.443249 -70.950236 -5.988309 -8.401005 -13.179460 -0.000001 0.000003 0.000001 0.021770 -0.038291 0.012954 0.000000 0.000000 -0.000004 -0.000001 -0.000000 -0.000002 0.000003 -0.000003 0.000005 -0.000002 0.000001 -0.000000 -0.009090 -0.002348 -0.024224 -0.000000 -0.000002 -0.000003 -0.000003 0.000000 0.000003 -0.000001 0.000002 0.000001 0.032823 -0.025104 0.012281 -0.000003 0.000003 -0.000001 -0.000001 -0.000001 -0.000003 -0.000002 -0.000002 0.000003 0.000002 0.000000 -0.000001 0.039230 -0.011402 0.008390 -0.000000 0.000001 0.000001 0.000001 0.000002 -0.000002 -0.000001 0.000005 -0.000001 0.000001 0.000002 0.000003 0.043417 0.002450 0.002889 -0.000001 0.000000 -0.000003 -0.000003 -0.000008 0.000002 0.000004 0.000004 -0.000003 -0.000004 0.000000 0.000002 -0.016662 0.078957 0.057696 -2.630530 2.726124 -25.964606 -0.176972 -0.020537 -0.095144 -4.651855 -11.798459 67.956578 -4.660157 7.248689 12.046309 0.000000 0.000001 0.000004 -0.021773 -0.038278 0.012988 -0.000002 0.000001 -0.000003 -0.000001 0.000001 -0.000003 0.000001 -0.000001 -0.000008 -0.000003 0.000003 -0.000002 0.009113 -0.002381 -0.024211 0.000001 -0.000004 0.000000 -0.000001 -0.000001 -0.000003 0.000000 0.000000 -0.000006 -0.032828 -0.025095 0.012286 -0.000000 0.000001 -0.000003 -0.000001 0.000003 0.000001 0.000003 0.000003 -0.000005 -0.000000 0.000005 -0.000006 -0.039192 -0.011488 0.008390 0.000000 0.000000 -0.000000 0.000005 0.000004 -0.000002 -0.000001 0.000001 0.000002 -0.000001 0.000003 -0.000002 -0.043421 0.002443 0.002845 -0.000001 0.000002 -0.000005 -0.000004 0.000003 -0.000001 -0.000005 -0.000006 0.000002 0.000002 -0.000001 -0.000001 0.000000 0.000000 -0.000000 -1.591648 0.025822 -1.334238 -6.351325 -0.373522 -4.171094 42.780275 -0.060436 0.611876 -0.000002 -0.000000 -0.000000 0.000002 0.000000 -0.000000 -0.000005 -0.000001 -0.000000 -0.038000 -0.085200 0.016200 -0.000001 -0.000000 -0.000000 -0.000000 -0.000000 0.000000 -1.556685 0.025369 -0.100055 2.513171 0.508556 6.477233 35.303807 0.143092 -1.443000 0.000002 0.000000 0.000000 0.000003 0.000000 0.000001 0.000007 0.000000 0.000000 0.038000 -0.085200 0.016200 -0.000002 0.000000 0.000000 
